<svg xmlns="http://www.w3.org/2000/svg" viewBox="0 0 20 14">
  <rect width="20" height="14" fill="#fff"/>
  <g fill="#0038a8">
    <path d="M0 1.556h20v1.555H0zM0 4.667h20v1.555H0zM0 7.778h20v1.555H0zM0 10.889h20v1.555H0z"/>
  </g>
  <path fill="#fff" d="M0 0h8.1v7.78H0z"/>
  <g fill="#f7b718" stroke="#8b5a00" stroke-width=".13">
    <circle cx="4.05" cy="3.89" r="1.05"/>
    <path d="m4.05 1.95.2.76.5-.6-.08.78.71-.35-.46.65.8.04-.74.31.46.65-.72-.34.11.78-.52-.6-.2.77-.21-.77-.5.6.08-.78-.71.35.46-.65-.8-.04.74-.31-.46-.65.72.34-.11-.78.52.6z"/>
  </g>
</svg>
